<?xml version="1.0" encoding="utf-8" standalone="no"?>
<!DOCTYPE svg PUBLIC "-//W3C//DTD SVG 1.1//EN"
  "http://www.w3.org/Graphics/SVG/1.1/DTD/svg11.dtd">
<!-- Created with matplotlib (https://matplotlib.org/) -->
<svg height="203.76pt" version="1.1" viewBox="0 0 641.52 203.76" width="641.52pt" xmlns="http://www.w3.org/2000/svg" xmlns:xlink="http://www.w3.org/1999/xlink">
 <metadata>
  <rdf:RDF xmlns:cc="http://creativecommons.org/ns#" xmlns:dc="http://purl.org/dc/elements/1.1/" xmlns:rdf="http://www.w3.org/1999/02/22-rdf-syntax-ns#">
   <cc:Work>
    <dc:type rdf:resource="http://purl.org/dc/dcmitype/StillImage"/>
    <dc:date>2021-06-15T17:29:34.396380</dc:date>
    <dc:format>image/svg+xml</dc:format>
    <dc:creator>
     <cc:Agent>
      <dc:title>Matplotlib v3.3.2, https://matplotlib.org/</dc:title>
     </cc:Agent>
    </dc:creator>
   </cc:Work>
  </rdf:RDF>
 </metadata>
 <defs>
  <style type="text/css">*{stroke-linecap:butt;stroke-linejoin:round;}</style>
 </defs>
 <g id="figure_1">
  <g id="patch_1">
   <path d="M 0 203.76 
L 641.52 203.76 
L 641.52 0 
L 0 0 
z
" style="fill:#ffffff;"/>
  </g>
  <g id="axes_1">
   <g id="patch_2">
    <path d="M 22.955018 182.379986 
L 635.04 182.379986 
L 635.04 16.980011 
L 22.955018 16.980011 
z
" style="fill:#eaeaf2;"/>
   </g>
   <g id="matplotlib.axis_1">
    <g id="xtick_1">
     <g id="line2d_1">
      <path clip-path="url(#p744d523d71)" d="M 50.777062 182.379986 
L 50.777062 16.980011 
" style="fill:none;stroke:#ffffff;stroke-linecap:round;stroke-width:0.5;"/>
     </g>
     <g id="text_1">
      <!-- 1981 -->
      <g style="fill:#262626;" transform="translate(43.778312 196.059127)scale(0.055 -0.055)">
       <defs>
        <path d="M 12.40625 8.296875 
L 28.515625 8.296875 
L 28.515625 63.921875 
L 10.984375 60.40625 
L 10.984375 69.390625 
L 28.421875 72.90625 
L 38.28125 72.90625 
L 38.28125 8.296875 
L 54.390625 8.296875 
L 54.390625 0 
L 12.40625 0 
z
" id="DejaVuSans-49"/>
        <path d="M 10.984375 1.515625 
L 10.984375 10.5 
Q 14.703125 8.734375 18.5 7.8125 
Q 22.3125 6.890625 25.984375 6.890625 
Q 35.75 6.890625 40.890625 13.453125 
Q 46.046875 20.015625 46.78125 33.40625 
Q 43.953125 29.203125 39.59375 26.953125 
Q 35.25 24.703125 29.984375 24.703125 
Q 19.046875 24.703125 12.671875 31.3125 
Q 6.296875 37.9375 6.296875 49.421875 
Q 6.296875 60.640625 12.9375 67.421875 
Q 19.578125 74.21875 30.609375 74.21875 
Q 43.265625 74.21875 49.921875 64.515625 
Q 56.59375 54.828125 56.59375 36.375 
Q 56.59375 19.140625 48.40625 8.859375 
Q 40.234375 -1.421875 26.421875 -1.421875 
Q 22.703125 -1.421875 18.890625 -0.6875 
Q 15.09375 0.046875 10.984375 1.515625 
z
M 30.609375 32.421875 
Q 37.25 32.421875 41.125 36.953125 
Q 45.015625 41.5 45.015625 49.421875 
Q 45.015625 57.28125 41.125 61.84375 
Q 37.25 66.40625 30.609375 66.40625 
Q 23.96875 66.40625 20.09375 61.84375 
Q 16.21875 57.28125 16.21875 49.421875 
Q 16.21875 41.5 20.09375 36.953125 
Q 23.96875 32.421875 30.609375 32.421875 
z
" id="DejaVuSans-57"/>
        <path d="M 31.78125 34.625 
Q 24.75 34.625 20.71875 30.859375 
Q 16.703125 27.09375 16.703125 20.515625 
Q 16.703125 13.921875 20.71875 10.15625 
Q 24.75 6.390625 31.78125 6.390625 
Q 38.8125 6.390625 42.859375 10.171875 
Q 46.921875 13.96875 46.921875 20.515625 
Q 46.921875 27.09375 42.890625 30.859375 
Q 38.875 34.625 31.78125 34.625 
z
M 21.921875 38.8125 
Q 15.578125 40.375 12.03125 44.71875 
Q 8.5 49.078125 8.5 55.328125 
Q 8.5 64.0625 14.71875 69.140625 
Q 20.953125 74.21875 31.78125 74.21875 
Q 42.671875 74.21875 48.875 69.140625 
Q 55.078125 64.0625 55.078125 55.328125 
Q 55.078125 49.078125 51.53125 44.71875 
Q 48 40.375 41.703125 38.8125 
Q 48.828125 37.15625 52.796875 32.3125 
Q 56.78125 27.484375 56.78125 20.515625 
Q 56.78125 9.90625 50.3125 4.234375 
Q 43.84375 -1.421875 31.78125 -1.421875 
Q 19.734375 -1.421875 13.25 4.234375 
Q 6.78125 9.90625 6.78125 20.515625 
Q 6.78125 27.484375 10.78125 32.3125 
Q 14.796875 37.15625 21.921875 38.8125 
z
M 18.3125 54.390625 
Q 18.3125 48.734375 21.84375 45.5625 
Q 25.390625 42.390625 31.78125 42.390625 
Q 38.140625 42.390625 41.71875 45.5625 
Q 45.3125 48.734375 45.3125 54.390625 
Q 45.3125 60.0625 41.71875 63.234375 
Q 38.140625 66.40625 31.78125 66.40625 
Q 25.390625 66.40625 21.84375 63.234375 
Q 18.3125 60.0625 18.3125 54.390625 
z
" id="DejaVuSans-56"/>
       </defs>
       <use xlink:href="#DejaVuSans-49"/>
       <use x="63.623047" xlink:href="#DejaVuSans-57"/>
       <use x="127.246094" xlink:href="#DejaVuSans-56"/>
       <use x="190.869141" xlink:href="#DejaVuSans-49"/>
      </g>
     </g>
    </g>
    <g id="xtick_2">
     <g id="line2d_2">
      <path clip-path="url(#p744d523d71)" d="M 78.599107 182.379986 
L 78.599107 16.980011 
" style="fill:none;stroke:#ffffff;stroke-linecap:round;stroke-width:0.5;"/>
     </g>
     <g id="text_2">
      <!-- 1983 -->
      <g style="fill:#262626;" transform="translate(71.600357 196.059127)scale(0.055 -0.055)">
       <defs>
        <path d="M 40.578125 39.3125 
Q 47.65625 37.796875 51.625 33 
Q 55.609375 28.21875 55.609375 21.1875 
Q 55.609375 10.40625 48.1875 4.484375 
Q 40.765625 -1.421875 27.09375 -1.421875 
Q 22.515625 -1.421875 17.65625 -0.515625 
Q 12.796875 0.390625 7.625 2.203125 
L 7.625 11.71875 
Q 11.71875 9.328125 16.59375 8.109375 
Q 21.484375 6.890625 26.8125 6.890625 
Q 36.078125 6.890625 40.9375 10.546875 
Q 45.796875 14.203125 45.796875 21.1875 
Q 45.796875 27.640625 41.28125 31.265625 
Q 36.765625 34.90625 28.71875 34.90625 
L 20.21875 34.90625 
L 20.21875 43.015625 
L 29.109375 43.015625 
Q 36.375 43.015625 40.234375 45.921875 
Q 44.09375 48.828125 44.09375 54.296875 
Q 44.09375 59.90625 40.109375 62.90625 
Q 36.140625 65.921875 28.71875 65.921875 
Q 24.65625 65.921875 20.015625 65.03125 
Q 15.375 64.15625 9.8125 62.3125 
L 9.8125 71.09375 
Q 15.4375 72.65625 20.34375 73.4375 
Q 25.25 74.21875 29.59375 74.21875 
Q 40.828125 74.21875 47.359375 69.109375 
Q 53.90625 64.015625 53.90625 55.328125 
Q 53.90625 49.265625 50.4375 45.09375 
Q 46.96875 40.921875 40.578125 39.3125 
z
" id="DejaVuSans-51"/>
       </defs>
       <use xlink:href="#DejaVuSans-49"/>
       <use x="63.623047" xlink:href="#DejaVuSans-57"/>
       <use x="127.246094" xlink:href="#DejaVuSans-56"/>
       <use x="190.869141" xlink:href="#DejaVuSans-51"/>
      </g>
     </g>
    </g>
    <g id="xtick_3">
     <g id="line2d_3">
      <path clip-path="url(#p744d523d71)" d="M 106.421152 182.379986 
L 106.421152 16.980011 
" style="fill:none;stroke:#ffffff;stroke-linecap:round;stroke-width:0.5;"/>
     </g>
     <g id="text_3">
      <!-- 1985 -->
      <g style="fill:#262626;" transform="translate(99.422402 196.059127)scale(0.055 -0.055)">
       <defs>
        <path d="M 10.796875 72.90625 
L 49.515625 72.90625 
L 49.515625 64.59375 
L 19.828125 64.59375 
L 19.828125 46.734375 
Q 21.96875 47.46875 24.109375 47.828125 
Q 26.265625 48.1875 28.421875 48.1875 
Q 40.625 48.1875 47.75 41.5 
Q 54.890625 34.8125 54.890625 23.390625 
Q 54.890625 11.625 47.5625 5.09375 
Q 40.234375 -1.421875 26.90625 -1.421875 
Q 22.3125 -1.421875 17.546875 -0.640625 
Q 12.796875 0.140625 7.71875 1.703125 
L 7.71875 11.625 
Q 12.109375 9.234375 16.796875 8.0625 
Q 21.484375 6.890625 26.703125 6.890625 
Q 35.15625 6.890625 40.078125 11.328125 
Q 45.015625 15.765625 45.015625 23.390625 
Q 45.015625 31 40.078125 35.4375 
Q 35.15625 39.890625 26.703125 39.890625 
Q 22.75 39.890625 18.8125 39.015625 
Q 14.890625 38.140625 10.796875 36.28125 
z
" id="DejaVuSans-53"/>
       </defs>
       <use xlink:href="#DejaVuSans-49"/>
       <use x="63.623047" xlink:href="#DejaVuSans-57"/>
       <use x="127.246094" xlink:href="#DejaVuSans-56"/>
       <use x="190.869141" xlink:href="#DejaVuSans-53"/>
      </g>
     </g>
    </g>
    <g id="xtick_4">
     <g id="line2d_4">
      <path clip-path="url(#p744d523d71)" d="M 134.243196 182.379986 
L 134.243196 16.980011 
" style="fill:none;stroke:#ffffff;stroke-linecap:round;stroke-width:0.5;"/>
     </g>
     <g id="text_4">
      <!-- 1987 -->
      <g style="fill:#262626;" transform="translate(127.244446 196.059127)scale(0.055 -0.055)">
       <defs>
        <path d="M 8.203125 72.90625 
L 55.078125 72.90625 
L 55.078125 68.703125 
L 28.609375 0 
L 18.3125 0 
L 43.21875 64.59375 
L 8.203125 64.59375 
z
" id="DejaVuSans-55"/>
       </defs>
       <use xlink:href="#DejaVuSans-49"/>
       <use x="63.623047" xlink:href="#DejaVuSans-57"/>
       <use x="127.246094" xlink:href="#DejaVuSans-56"/>
       <use x="190.869141" xlink:href="#DejaVuSans-55"/>
      </g>
     </g>
    </g>
    <g id="xtick_5">
     <g id="line2d_5">
      <path clip-path="url(#p744d523d71)" d="M 162.065241 182.379986 
L 162.065241 16.980011 
" style="fill:none;stroke:#ffffff;stroke-linecap:round;stroke-width:0.5;"/>
     </g>
     <g id="text_5">
      <!-- 1989 -->
      <g style="fill:#262626;" transform="translate(155.066491 196.059127)scale(0.055 -0.055)">
       <use xlink:href="#DejaVuSans-49"/>
       <use x="63.623047" xlink:href="#DejaVuSans-57"/>
       <use x="127.246094" xlink:href="#DejaVuSans-56"/>
       <use x="190.869141" xlink:href="#DejaVuSans-57"/>
      </g>
     </g>
    </g>
    <g id="xtick_6">
     <g id="line2d_6">
      <path clip-path="url(#p744d523d71)" d="M 189.887286 182.379986 
L 189.887286 16.980011 
" style="fill:none;stroke:#ffffff;stroke-linecap:round;stroke-width:0.5;"/>
     </g>
     <g id="text_6">
      <!-- 1991 -->
      <g style="fill:#262626;" transform="translate(182.888536 196.059127)scale(0.055 -0.055)">
       <use xlink:href="#DejaVuSans-49"/>
       <use x="63.623047" xlink:href="#DejaVuSans-57"/>
       <use x="127.246094" xlink:href="#DejaVuSans-57"/>
       <use x="190.869141" xlink:href="#DejaVuSans-49"/>
      </g>
     </g>
    </g>
    <g id="xtick_7">
     <g id="line2d_7">
      <path clip-path="url(#p744d523d71)" d="M 217.70933 182.379986 
L 217.70933 16.980011 
" style="fill:none;stroke:#ffffff;stroke-linecap:round;stroke-width:0.5;"/>
     </g>
     <g id="text_7">
      <!-- 1993 -->
      <g style="fill:#262626;" transform="translate(210.71058 196.059127)scale(0.055 -0.055)">
       <use xlink:href="#DejaVuSans-49"/>
       <use x="63.623047" xlink:href="#DejaVuSans-57"/>
       <use x="127.246094" xlink:href="#DejaVuSans-57"/>
       <use x="190.869141" xlink:href="#DejaVuSans-51"/>
      </g>
     </g>
    </g>
    <g id="xtick_8">
     <g id="line2d_8">
      <path clip-path="url(#p744d523d71)" d="M 245.531375 182.379986 
L 245.531375 16.980011 
" style="fill:none;stroke:#ffffff;stroke-linecap:round;stroke-width:0.5;"/>
     </g>
     <g id="text_8">
      <!-- 1995 -->
      <g style="fill:#262626;" transform="translate(238.532625 196.059127)scale(0.055 -0.055)">
       <use xlink:href="#DejaVuSans-49"/>
       <use x="63.623047" xlink:href="#DejaVuSans-57"/>
       <use x="127.246094" xlink:href="#DejaVuSans-57"/>
       <use x="190.869141" xlink:href="#DejaVuSans-53"/>
      </g>
     </g>
    </g>
    <g id="xtick_9">
     <g id="line2d_9">
      <path clip-path="url(#p744d523d71)" d="M 273.35342 182.379986 
L 273.35342 16.980011 
" style="fill:none;stroke:#ffffff;stroke-linecap:round;stroke-width:0.5;"/>
     </g>
     <g id="text_9">
      <!-- 1997 -->
      <g style="fill:#262626;" transform="translate(266.35467 196.059127)scale(0.055 -0.055)">
       <use xlink:href="#DejaVuSans-49"/>
       <use x="63.623047" xlink:href="#DejaVuSans-57"/>
       <use x="127.246094" xlink:href="#DejaVuSans-57"/>
       <use x="190.869141" xlink:href="#DejaVuSans-55"/>
      </g>
     </g>
    </g>
    <g id="xtick_10">
     <g id="line2d_10">
      <path clip-path="url(#p744d523d71)" d="M 301.175464 182.379986 
L 301.175464 16.980011 
" style="fill:none;stroke:#ffffff;stroke-linecap:round;stroke-width:0.5;"/>
     </g>
     <g id="text_10">
      <!-- 1999 -->
      <g style="fill:#262626;" transform="translate(294.176714 196.059127)scale(0.055 -0.055)">
       <use xlink:href="#DejaVuSans-49"/>
       <use x="63.623047" xlink:href="#DejaVuSans-57"/>
       <use x="127.246094" xlink:href="#DejaVuSans-57"/>
       <use x="190.869141" xlink:href="#DejaVuSans-57"/>
      </g>
     </g>
    </g>
    <g id="xtick_11">
     <g id="line2d_11">
      <path clip-path="url(#p744d523d71)" d="M 328.997509 182.379986 
L 328.997509 16.980011 
" style="fill:none;stroke:#ffffff;stroke-linecap:round;stroke-width:0.5;"/>
     </g>
     <g id="text_11">
      <!-- 2001 -->
      <g style="fill:#262626;" transform="translate(321.998759 196.059127)scale(0.055 -0.055)">
       <defs>
        <path d="M 19.1875 8.296875 
L 53.609375 8.296875 
L 53.609375 0 
L 7.328125 0 
L 7.328125 8.296875 
Q 12.9375 14.109375 22.625 23.890625 
Q 32.328125 33.6875 34.8125 36.53125 
Q 39.546875 41.84375 41.421875 45.53125 
Q 43.3125 49.21875 43.3125 52.78125 
Q 43.3125 58.59375 39.234375 62.25 
Q 35.15625 65.921875 28.609375 65.921875 
Q 23.96875 65.921875 18.8125 64.3125 
Q 13.671875 62.703125 7.8125 59.421875 
L 7.8125 69.390625 
Q 13.765625 71.78125 18.9375 73 
Q 24.125 74.21875 28.421875 74.21875 
Q 39.75 74.21875 46.484375 68.546875 
Q 53.21875 62.890625 53.21875 53.421875 
Q 53.21875 48.921875 51.53125 44.890625 
Q 49.859375 40.875 45.40625 35.40625 
Q 44.1875 33.984375 37.640625 27.21875 
Q 31.109375 20.453125 19.1875 8.296875 
z
" id="DejaVuSans-50"/>
        <path d="M 31.78125 66.40625 
Q 24.171875 66.40625 20.328125 58.90625 
Q 16.5 51.421875 16.5 36.375 
Q 16.5 21.390625 20.328125 13.890625 
Q 24.171875 6.390625 31.78125 6.390625 
Q 39.453125 6.390625 43.28125 13.890625 
Q 47.125 21.390625 47.125 36.375 
Q 47.125 51.421875 43.28125 58.90625 
Q 39.453125 66.40625 31.78125 66.40625 
z
M 31.78125 74.21875 
Q 44.046875 74.21875 50.515625 64.515625 
Q 56.984375 54.828125 56.984375 36.375 
Q 56.984375 17.96875 50.515625 8.265625 
Q 44.046875 -1.421875 31.78125 -1.421875 
Q 19.53125 -1.421875 13.0625 8.265625 
Q 6.59375 17.96875 6.59375 36.375 
Q 6.59375 54.828125 13.0625 64.515625 
Q 19.53125 74.21875 31.78125 74.21875 
z
" id="DejaVuSans-48"/>
       </defs>
       <use xlink:href="#DejaVuSans-50"/>
       <use x="63.623047" xlink:href="#DejaVuSans-48"/>
       <use x="127.246094" xlink:href="#DejaVuSans-48"/>
       <use x="190.869141" xlink:href="#DejaVuSans-49"/>
      </g>
     </g>
    </g>
    <g id="xtick_12">
     <g id="line2d_12">
      <path clip-path="url(#p744d523d71)" d="M 356.819554 182.379986 
L 356.819554 16.980011 
" style="fill:none;stroke:#ffffff;stroke-linecap:round;stroke-width:0.5;"/>
     </g>
     <g id="text_12">
      <!-- 2003 -->
      <g style="fill:#262626;" transform="translate(349.820804 196.059127)scale(0.055 -0.055)">
       <use xlink:href="#DejaVuSans-50"/>
       <use x="63.623047" xlink:href="#DejaVuSans-48"/>
       <use x="127.246094" xlink:href="#DejaVuSans-48"/>
       <use x="190.869141" xlink:href="#DejaVuSans-51"/>
      </g>
     </g>
    </g>
    <g id="xtick_13">
     <g id="line2d_13">
      <path clip-path="url(#p744d523d71)" d="M 384.641598 182.379986 
L 384.641598 16.980011 
" style="fill:none;stroke:#ffffff;stroke-linecap:round;stroke-width:0.5;"/>
     </g>
     <g id="text_13">
      <!-- 2005 -->
      <g style="fill:#262626;" transform="translate(377.642848 196.059127)scale(0.055 -0.055)">
       <use xlink:href="#DejaVuSans-50"/>
       <use x="63.623047" xlink:href="#DejaVuSans-48"/>
       <use x="127.246094" xlink:href="#DejaVuSans-48"/>
       <use x="190.869141" xlink:href="#DejaVuSans-53"/>
      </g>
     </g>
    </g>
    <g id="xtick_14">
     <g id="line2d_14">
      <path clip-path="url(#p744d523d71)" d="M 412.463643 182.379986 
L 412.463643 16.980011 
" style="fill:none;stroke:#ffffff;stroke-linecap:round;stroke-width:0.5;"/>
     </g>
     <g id="text_14">
      <!-- 2007 -->
      <g style="fill:#262626;" transform="translate(405.464893 196.059127)scale(0.055 -0.055)">
       <use xlink:href="#DejaVuSans-50"/>
       <use x="63.623047" xlink:href="#DejaVuSans-48"/>
       <use x="127.246094" xlink:href="#DejaVuSans-48"/>
       <use x="190.869141" xlink:href="#DejaVuSans-55"/>
      </g>
     </g>
    </g>
    <g id="xtick_15">
     <g id="line2d_15">
      <path clip-path="url(#p744d523d71)" d="M 440.285687 182.379986 
L 440.285687 16.980011 
" style="fill:none;stroke:#ffffff;stroke-linecap:round;stroke-width:0.5;"/>
     </g>
     <g id="text_15">
      <!-- 2009 -->
      <g style="fill:#262626;" transform="translate(433.286937 196.059127)scale(0.055 -0.055)">
       <use xlink:href="#DejaVuSans-50"/>
       <use x="63.623047" xlink:href="#DejaVuSans-48"/>
       <use x="127.246094" xlink:href="#DejaVuSans-48"/>
       <use x="190.869141" xlink:href="#DejaVuSans-57"/>
      </g>
     </g>
    </g>
    <g id="xtick_16">
     <g id="line2d_16">
      <path clip-path="url(#p744d523d71)" d="M 468.107732 182.379986 
L 468.107732 16.980011 
" style="fill:none;stroke:#ffffff;stroke-linecap:round;stroke-width:0.5;"/>
     </g>
     <g id="text_16">
      <!-- 2011 -->
      <g style="fill:#262626;" transform="translate(461.108982 196.059127)scale(0.055 -0.055)">
       <use xlink:href="#DejaVuSans-50"/>
       <use x="63.623047" xlink:href="#DejaVuSans-48"/>
       <use x="127.246094" xlink:href="#DejaVuSans-49"/>
       <use x="190.869141" xlink:href="#DejaVuSans-49"/>
      </g>
     </g>
    </g>
    <g id="xtick_17">
     <g id="line2d_17">
      <path clip-path="url(#p744d523d71)" d="M 495.929777 182.379986 
L 495.929777 16.980011 
" style="fill:none;stroke:#ffffff;stroke-linecap:round;stroke-width:0.5;"/>
     </g>
     <g id="text_17">
      <!-- 2013 -->
      <g style="fill:#262626;" transform="translate(488.931027 196.059127)scale(0.055 -0.055)">
       <use xlink:href="#DejaVuSans-50"/>
       <use x="63.623047" xlink:href="#DejaVuSans-48"/>
       <use x="127.246094" xlink:href="#DejaVuSans-49"/>
       <use x="190.869141" xlink:href="#DejaVuSans-51"/>
      </g>
     </g>
    </g>
    <g id="xtick_18">
     <g id="line2d_18">
      <path clip-path="url(#p744d523d71)" d="M 523.751821 182.379986 
L 523.751821 16.980011 
" style="fill:none;stroke:#ffffff;stroke-linecap:round;stroke-width:0.5;"/>
     </g>
     <g id="text_18">
      <!-- 2015 -->
      <g style="fill:#262626;" transform="translate(516.753071 196.059127)scale(0.055 -0.055)">
       <use xlink:href="#DejaVuSans-50"/>
       <use x="63.623047" xlink:href="#DejaVuSans-48"/>
       <use x="127.246094" xlink:href="#DejaVuSans-49"/>
       <use x="190.869141" xlink:href="#DejaVuSans-53"/>
      </g>
     </g>
    </g>
    <g id="xtick_19">
     <g id="line2d_19">
      <path clip-path="url(#p744d523d71)" d="M 551.573866 182.379986 
L 551.573866 16.980011 
" style="fill:none;stroke:#ffffff;stroke-linecap:round;stroke-width:0.5;"/>
     </g>
     <g id="text_19">
      <!-- 2017 -->
      <g style="fill:#262626;" transform="translate(544.575116 196.059127)scale(0.055 -0.055)">
       <use xlink:href="#DejaVuSans-50"/>
       <use x="63.623047" xlink:href="#DejaVuSans-48"/>
       <use x="127.246094" xlink:href="#DejaVuSans-49"/>
       <use x="190.869141" xlink:href="#DejaVuSans-55"/>
      </g>
     </g>
    </g>
    <g id="xtick_20">
     <g id="line2d_20">
      <path clip-path="url(#p744d523d71)" d="M 579.395911 182.379986 
L 579.395911 16.980011 
" style="fill:none;stroke:#ffffff;stroke-linecap:round;stroke-width:0.5;"/>
     </g>
     <g id="text_20">
      <!-- 2019 -->
      <g style="fill:#262626;" transform="translate(572.397161 196.059127)scale(0.055 -0.055)">
       <use xlink:href="#DejaVuSans-50"/>
       <use x="63.623047" xlink:href="#DejaVuSans-48"/>
       <use x="127.246094" xlink:href="#DejaVuSans-49"/>
       <use x="190.869141" xlink:href="#DejaVuSans-57"/>
      </g>
     </g>
    </g>
    <g id="xtick_21">
     <g id="line2d_21">
      <path clip-path="url(#p744d523d71)" d="M 607.217955 182.379986 
L 607.217955 16.980011 
" style="fill:none;stroke:#ffffff;stroke-linecap:round;stroke-width:0.5;"/>
     </g>
     <g id="text_21">
      <!-- 2021 -->
      <g style="fill:#262626;" transform="translate(600.219205 196.059127)scale(0.055 -0.055)">
       <use xlink:href="#DejaVuSans-50"/>
       <use x="63.623047" xlink:href="#DejaVuSans-48"/>
       <use x="127.246094" xlink:href="#DejaVuSans-50"/>
       <use x="190.869141" xlink:href="#DejaVuSans-49"/>
      </g>
     </g>
    </g>
   </g>
   <g id="matplotlib.axis_2">
    <g id="ytick_1">
     <g id="line2d_22">
      <path clip-path="url(#p744d523d71)" d="M 22.955018 174.861806 
L 635.04 174.861806 
" style="fill:none;stroke:#ffffff;stroke-linecap:round;stroke-width:0.5;"/>
     </g>
     <g id="text_22">
      <!-- 0 -->
      <g style="fill:#262626;" transform="translate(9.955643 176.951376)scale(0.055 -0.055)">
       <use xlink:href="#DejaVuSans-48"/>
      </g>
     </g>
    </g>
    <g id="ytick_2">
     <g id="line2d_23">
      <path clip-path="url(#p744d523d71)" d="M 22.955018 152.07944 
L 635.04 152.07944 
" style="fill:none;stroke:#ffffff;stroke-linecap:round;stroke-width:0.5;"/>
     </g>
     <g id="text_23">
      <!-- 5 -->
      <g style="fill:#262626;" transform="translate(9.955643 154.16901)scale(0.055 -0.055)">
       <use xlink:href="#DejaVuSans-53"/>
      </g>
     </g>
    </g>
    <g id="ytick_3">
     <g id="line2d_24">
      <path clip-path="url(#p744d523d71)" d="M 22.955018 129.297074 
L 635.04 129.297074 
" style="fill:none;stroke:#ffffff;stroke-linecap:round;stroke-width:0.5;"/>
     </g>
     <g id="text_24">
      <!-- 10 -->
      <g style="fill:#262626;" transform="translate(6.456268 131.386645)scale(0.055 -0.055)">
       <use xlink:href="#DejaVuSans-49"/>
       <use x="63.623047" xlink:href="#DejaVuSans-48"/>
      </g>
     </g>
    </g>
    <g id="ytick_4">
     <g id="line2d_25">
      <path clip-path="url(#p744d523d71)" d="M 22.955018 106.514709 
L 635.04 106.514709 
" style="fill:none;stroke:#ffffff;stroke-linecap:round;stroke-width:0.5;"/>
     </g>
     <g id="text_25">
      <!-- 15 -->
      <g style="fill:#262626;" transform="translate(6.456268 108.604279)scale(0.055 -0.055)">
       <use xlink:href="#DejaVuSans-49"/>
       <use x="63.623047" xlink:href="#DejaVuSans-53"/>
      </g>
     </g>
    </g>
    <g id="ytick_5">
     <g id="line2d_26">
      <path clip-path="url(#p744d523d71)" d="M 22.955018 83.732343 
L 635.04 83.732343 
" style="fill:none;stroke:#ffffff;stroke-linecap:round;stroke-width:0.5;"/>
     </g>
     <g id="text_26">
      <!-- 20 -->
      <g style="fill:#262626;" transform="translate(6.456268 85.821913)scale(0.055 -0.055)">
       <use xlink:href="#DejaVuSans-50"/>
       <use x="63.623047" xlink:href="#DejaVuSans-48"/>
      </g>
     </g>
    </g>
    <g id="ytick_6">
     <g id="line2d_27">
      <path clip-path="url(#p744d523d71)" d="M 22.955018 60.949977 
L 635.04 60.949977 
" style="fill:none;stroke:#ffffff;stroke-linecap:round;stroke-width:0.5;"/>
     </g>
     <g id="text_27">
      <!-- 25 -->
      <g style="fill:#262626;" transform="translate(6.456268 63.039548)scale(0.055 -0.055)">
       <use xlink:href="#DejaVuSans-50"/>
       <use x="63.623047" xlink:href="#DejaVuSans-53"/>
      </g>
     </g>
    </g>
    <g id="ytick_7">
     <g id="line2d_28">
      <path clip-path="url(#p744d523d71)" d="M 22.955018 38.167612 
L 635.04 38.167612 
" style="fill:none;stroke:#ffffff;stroke-linecap:round;stroke-width:0.5;"/>
     </g>
     <g id="text_28">
      <!-- 30 -->
      <g style="fill:#262626;" transform="translate(6.456268 40.257182)scale(0.055 -0.055)">
       <use xlink:href="#DejaVuSans-51"/>
       <use x="63.623047" xlink:href="#DejaVuSans-48"/>
      </g>
     </g>
    </g>
   </g>
   <g id="line2d_29">
    <path clip-path="url(#p744d523d71)" d="M 50.777062 170.305332 
L 64.688085 174.861806 
L 78.599107 174.861806 
L 92.510129 174.861806 
L 106.421152 170.305332 
L 120.332174 170.305332 
L 134.243196 170.305332 
L 148.154219 174.861806 
L 162.065241 170.305332 
L 175.976263 170.305332 
L 189.887286 170.305332 
L 203.798308 170.305332 
L 217.70933 161.192386 
L 231.620353 170.305332 
L 245.531375 165.748859 
L 259.442397 170.305332 
L 273.35342 165.748859 
L 287.264442 165.748859 
L 301.175464 156.635913 
L 315.086487 147.522967 
L 328.997509 170.305332 
L 342.908531 152.07944 
L 356.819554 129.297074 
L 370.730576 152.07944 
L 384.641598 106.514709 
L 398.55262 97.401762 
L 412.463643 97.401762 
L 426.374665 133.853547 
L 440.285687 133.853547 
L 454.19671 120.184128 
L 468.107732 88.288816 
L 482.018754 120.184128 
L 495.929777 79.17587 
L 509.840799 92.845289 
L 523.751821 88.288816 
L 537.662844 47.280558 
L 551.573866 92.845289 
L 565.484888 101.958235 
L 579.395911 111.071182 
L 593.306933 142.966494 
L 607.217955 161.192386 
" style="fill:none;stroke:#4c72b0;stroke-linecap:round;stroke-width:0.75;"/>
   </g>
   <g id="line2d_30">
    <path clip-path="url(#p744d523d71)" d="M 50.777062 174.861806 
L 64.688085 174.861806 
L 78.599107 174.861806 
L 92.510129 174.861806 
L 106.421152 174.861806 
L 120.332174 174.861806 
L 134.243196 174.861806 
L 148.154219 174.861806 
L 162.065241 174.861806 
L 175.976263 174.861806 
L 189.887286 174.861806 
L 203.798308 174.861806 
L 217.70933 174.861806 
L 231.620353 174.861806 
L 245.531375 174.861806 
L 259.442397 174.861806 
L 273.35342 174.861806 
L 287.264442 174.861806 
L 301.175464 174.861806 
L 315.086487 74.619397 
L 328.997509 101.958235 
L 342.908531 65.50645 
L 356.819554 24.498192 
L 370.730576 120.184128 
L 384.641598 129.297074 
L 398.55262 174.861806 
L 412.463643 115.627655 
L 426.374665 174.861806 
L 440.285687 174.861806 
L 454.19671 174.861806 
L 468.107732 174.861806 
L 482.018754 174.861806 
L 495.929777 174.861806 
L 509.840799 129.297074 
L 523.751821 170.305332 
L 537.662844 101.958235 
L 551.573866 174.861806 
L 565.484888 170.305332 
L 579.395911 170.305332 
L 593.306933 174.861806 
L 607.217955 170.305332 
" style="fill:none;stroke:#dd8452;stroke-linecap:round;stroke-width:0.75;"/>
   </g>
   <g id="patch_3">
    <path d="M 22.955018 182.379986 
L 22.955018 16.980011 
" style="fill:none;stroke:#ffffff;stroke-linecap:square;stroke-linejoin:miter;stroke-width:0.625;"/>
   </g>
   <g id="patch_4">
    <path d="M 635.04 182.379986 
L 635.04 16.980011 
" style="fill:none;stroke:#ffffff;stroke-linecap:square;stroke-linejoin:miter;stroke-width:0.625;"/>
   </g>
   <g id="patch_5">
    <path d="M 22.955018 182.379986 
L 635.04 182.379986 
" style="fill:none;stroke:#ffffff;stroke-linecap:square;stroke-linejoin:miter;stroke-width:0.625;"/>
   </g>
   <g id="patch_6">
    <path d="M 22.955018 16.980011 
L 635.04 16.980011 
" style="fill:none;stroke:#ffffff;stroke-linecap:square;stroke-linejoin:miter;stroke-width:0.625;"/>
   </g>
   <g id="text_29">
    <!-- 1 -->
    <g style="fill:#262626;" transform="translate(50.777062 170.305332)scale(0.06 -0.06)">
     <use xlink:href="#DejaVuSans-49"/>
    </g>
   </g>
   <g id="text_30">
    <!-- 0 -->
    <g style="fill:#262626;" transform="translate(64.688085 174.861806)scale(0.06 -0.06)">
     <use xlink:href="#DejaVuSans-48"/>
    </g>
   </g>
   <g id="text_31">
    <!-- 0 -->
    <g style="fill:#262626;" transform="translate(78.599107 174.861806)scale(0.06 -0.06)">
     <use xlink:href="#DejaVuSans-48"/>
    </g>
   </g>
   <g id="text_32">
    <!-- 0 -->
    <g style="fill:#262626;" transform="translate(92.510129 174.861806)scale(0.06 -0.06)">
     <use xlink:href="#DejaVuSans-48"/>
    </g>
   </g>
   <g id="text_33">
    <!-- 1 -->
    <g style="fill:#262626;" transform="translate(106.421152 170.305332)scale(0.06 -0.06)">
     <use xlink:href="#DejaVuSans-49"/>
    </g>
   </g>
   <g id="text_34">
    <!-- 1 -->
    <g style="fill:#262626;" transform="translate(120.332174 170.305332)scale(0.06 -0.06)">
     <use xlink:href="#DejaVuSans-49"/>
    </g>
   </g>
   <g id="text_35">
    <!-- 1 -->
    <g style="fill:#262626;" transform="translate(134.243196 170.305332)scale(0.06 -0.06)">
     <use xlink:href="#DejaVuSans-49"/>
    </g>
   </g>
   <g id="text_36">
    <!-- 0 -->
    <g style="fill:#262626;" transform="translate(148.154219 174.861806)scale(0.06 -0.06)">
     <use xlink:href="#DejaVuSans-48"/>
    </g>
   </g>
   <g id="text_37">
    <!-- 1 -->
    <g style="fill:#262626;" transform="translate(162.065241 170.305332)scale(0.06 -0.06)">
     <use xlink:href="#DejaVuSans-49"/>
    </g>
   </g>
   <g id="text_38">
    <!-- 1 -->
    <g style="fill:#262626;" transform="translate(175.976263 170.305332)scale(0.06 -0.06)">
     <use xlink:href="#DejaVuSans-49"/>
    </g>
   </g>
   <g id="text_39">
    <!-- 1 -->
    <g style="fill:#262626;" transform="translate(189.887286 170.305332)scale(0.06 -0.06)">
     <use xlink:href="#DejaVuSans-49"/>
    </g>
   </g>
   <g id="text_40">
    <!-- 1 -->
    <g style="fill:#262626;" transform="translate(203.798308 170.305332)scale(0.06 -0.06)">
     <use xlink:href="#DejaVuSans-49"/>
    </g>
   </g>
   <g id="text_41">
    <!-- 3 -->
    <g style="fill:#262626;" transform="translate(217.70933 161.192386)scale(0.06 -0.06)">
     <use xlink:href="#DejaVuSans-51"/>
    </g>
   </g>
   <g id="text_42">
    <!-- 1 -->
    <g style="fill:#262626;" transform="translate(231.620353 170.305332)scale(0.06 -0.06)">
     <use xlink:href="#DejaVuSans-49"/>
    </g>
   </g>
   <g id="text_43">
    <!-- 2 -->
    <g style="fill:#262626;" transform="translate(245.531375 165.748859)scale(0.06 -0.06)">
     <use xlink:href="#DejaVuSans-50"/>
    </g>
   </g>
   <g id="text_44">
    <!-- 1 -->
    <g style="fill:#262626;" transform="translate(259.442397 170.305332)scale(0.06 -0.06)">
     <use xlink:href="#DejaVuSans-49"/>
    </g>
   </g>
   <g id="text_45">
    <!-- 2 -->
    <g style="fill:#262626;" transform="translate(273.35342 165.748859)scale(0.06 -0.06)">
     <use xlink:href="#DejaVuSans-50"/>
    </g>
   </g>
   <g id="text_46">
    <!-- 2 -->
    <g style="fill:#262626;" transform="translate(287.264442 165.748859)scale(0.06 -0.06)">
     <use xlink:href="#DejaVuSans-50"/>
    </g>
   </g>
   <g id="text_47">
    <!-- 4 -->
    <g style="fill:#262626;" transform="translate(301.175464 156.635913)scale(0.06 -0.06)">
     <defs>
      <path d="M 37.796875 64.3125 
L 12.890625 25.390625 
L 37.796875 25.390625 
z
M 35.203125 72.90625 
L 47.609375 72.90625 
L 47.609375 25.390625 
L 58.015625 25.390625 
L 58.015625 17.1875 
L 47.609375 17.1875 
L 47.609375 0 
L 37.796875 0 
L 37.796875 17.1875 
L 4.890625 17.1875 
L 4.890625 26.703125 
z
" id="DejaVuSans-52"/>
     </defs>
     <use xlink:href="#DejaVuSans-52"/>
    </g>
   </g>
   <g id="text_48">
    <!-- 6 -->
    <g style="fill:#262626;" transform="translate(315.086487 147.522967)scale(0.06 -0.06)">
     <defs>
      <path d="M 33.015625 40.375 
Q 26.375 40.375 22.484375 35.828125 
Q 18.609375 31.296875 18.609375 23.390625 
Q 18.609375 15.53125 22.484375 10.953125 
Q 26.375 6.390625 33.015625 6.390625 
Q 39.65625 6.390625 43.53125 10.953125 
Q 47.40625 15.53125 47.40625 23.390625 
Q 47.40625 31.296875 43.53125 35.828125 
Q 39.65625 40.375 33.015625 40.375 
z
M 52.59375 71.296875 
L 52.59375 62.3125 
Q 48.875 64.0625 45.09375 64.984375 
Q 41.3125 65.921875 37.59375 65.921875 
Q 27.828125 65.921875 22.671875 59.328125 
Q 17.53125 52.734375 16.796875 39.40625 
Q 19.671875 43.65625 24.015625 45.921875 
Q 28.375 48.1875 33.59375 48.1875 
Q 44.578125 48.1875 50.953125 41.515625 
Q 57.328125 34.859375 57.328125 23.390625 
Q 57.328125 12.15625 50.6875 5.359375 
Q 44.046875 -1.421875 33.015625 -1.421875 
Q 20.359375 -1.421875 13.671875 8.265625 
Q 6.984375 17.96875 6.984375 36.375 
Q 6.984375 53.65625 15.1875 63.9375 
Q 23.390625 74.21875 37.203125 74.21875 
Q 40.921875 74.21875 44.703125 73.484375 
Q 48.484375 72.75 52.59375 71.296875 
z
" id="DejaVuSans-54"/>
     </defs>
     <use xlink:href="#DejaVuSans-54"/>
    </g>
   </g>
   <g id="text_49">
    <!-- 1 -->
    <g style="fill:#262626;" transform="translate(328.997509 170.305332)scale(0.06 -0.06)">
     <use xlink:href="#DejaVuSans-49"/>
    </g>
   </g>
   <g id="text_50">
    <!-- 5 -->
    <g style="fill:#262626;" transform="translate(342.908531 152.07944)scale(0.06 -0.06)">
     <use xlink:href="#DejaVuSans-53"/>
    </g>
   </g>
   <g id="text_51">
    <!-- 10 -->
    <g style="fill:#262626;" transform="translate(356.819554 129.297074)scale(0.06 -0.06)">
     <use xlink:href="#DejaVuSans-49"/>
     <use x="63.623047" xlink:href="#DejaVuSans-48"/>
    </g>
   </g>
   <g id="text_52">
    <!-- 5 -->
    <g style="fill:#262626;" transform="translate(370.730576 152.07944)scale(0.06 -0.06)">
     <use xlink:href="#DejaVuSans-53"/>
    </g>
   </g>
   <g id="text_53">
    <!-- 15 -->
    <g style="fill:#262626;" transform="translate(384.641598 106.514709)scale(0.06 -0.06)">
     <use xlink:href="#DejaVuSans-49"/>
     <use x="63.623047" xlink:href="#DejaVuSans-53"/>
    </g>
   </g>
   <g id="text_54">
    <!-- 17 -->
    <g style="fill:#262626;" transform="translate(398.55262 97.401762)scale(0.06 -0.06)">
     <use xlink:href="#DejaVuSans-49"/>
     <use x="63.623047" xlink:href="#DejaVuSans-55"/>
    </g>
   </g>
   <g id="text_55">
    <!-- 17 -->
    <g style="fill:#262626;" transform="translate(412.463643 97.401762)scale(0.06 -0.06)">
     <use xlink:href="#DejaVuSans-49"/>
     <use x="63.623047" xlink:href="#DejaVuSans-55"/>
    </g>
   </g>
   <g id="text_56">
    <!-- 9 -->
    <g style="fill:#262626;" transform="translate(426.374665 133.853547)scale(0.06 -0.06)">
     <use xlink:href="#DejaVuSans-57"/>
    </g>
   </g>
   <g id="text_57">
    <!-- 9 -->
    <g style="fill:#262626;" transform="translate(440.285687 133.853547)scale(0.06 -0.06)">
     <use xlink:href="#DejaVuSans-57"/>
    </g>
   </g>
   <g id="text_58">
    <!-- 12 -->
    <g style="fill:#262626;" transform="translate(454.19671 120.184128)scale(0.06 -0.06)">
     <use xlink:href="#DejaVuSans-49"/>
     <use x="63.623047" xlink:href="#DejaVuSans-50"/>
    </g>
   </g>
   <g id="text_59">
    <!-- 19 -->
    <g style="fill:#262626;" transform="translate(468.107732 88.288816)scale(0.06 -0.06)">
     <use xlink:href="#DejaVuSans-49"/>
     <use x="63.623047" xlink:href="#DejaVuSans-57"/>
    </g>
   </g>
   <g id="text_60">
    <!-- 12 -->
    <g style="fill:#262626;" transform="translate(482.018754 120.184128)scale(0.06 -0.06)">
     <use xlink:href="#DejaVuSans-49"/>
     <use x="63.623047" xlink:href="#DejaVuSans-50"/>
    </g>
   </g>
   <g id="text_61">
    <!-- 21 -->
    <g style="fill:#262626;" transform="translate(495.929777 79.17587)scale(0.06 -0.06)">
     <use xlink:href="#DejaVuSans-50"/>
     <use x="63.623047" xlink:href="#DejaVuSans-49"/>
    </g>
   </g>
   <g id="text_62">
    <!-- 18 -->
    <g style="fill:#262626;" transform="translate(509.840799 92.845289)scale(0.06 -0.06)">
     <use xlink:href="#DejaVuSans-49"/>
     <use x="63.623047" xlink:href="#DejaVuSans-56"/>
    </g>
   </g>
   <g id="text_63">
    <!-- 19 -->
    <g style="fill:#262626;" transform="translate(523.751821 88.288816)scale(0.06 -0.06)">
     <use xlink:href="#DejaVuSans-49"/>
     <use x="63.623047" xlink:href="#DejaVuSans-57"/>
    </g>
   </g>
   <g id="text_64">
    <!-- 28 -->
    <g style="fill:#262626;" transform="translate(537.662844 47.280558)scale(0.06 -0.06)">
     <use xlink:href="#DejaVuSans-50"/>
     <use x="63.623047" xlink:href="#DejaVuSans-56"/>
    </g>
   </g>
   <g id="text_65">
    <!-- 18 -->
    <g style="fill:#262626;" transform="translate(551.573866 92.845289)scale(0.06 -0.06)">
     <use xlink:href="#DejaVuSans-49"/>
     <use x="63.623047" xlink:href="#DejaVuSans-56"/>
    </g>
   </g>
   <g id="text_66">
    <!-- 16 -->
    <g style="fill:#262626;" transform="translate(565.484888 101.958235)scale(0.06 -0.06)">
     <use xlink:href="#DejaVuSans-49"/>
     <use x="63.623047" xlink:href="#DejaVuSans-54"/>
    </g>
   </g>
   <g id="text_67">
    <!-- 14 -->
    <g style="fill:#262626;" transform="translate(579.395911 111.071182)scale(0.06 -0.06)">
     <use xlink:href="#DejaVuSans-49"/>
     <use x="63.623047" xlink:href="#DejaVuSans-52"/>
    </g>
   </g>
   <g id="text_68">
    <!-- 7 -->
    <g style="fill:#262626;" transform="translate(593.306933 142.966494)scale(0.06 -0.06)">
     <use xlink:href="#DejaVuSans-55"/>
    </g>
   </g>
   <g id="text_69">
    <!-- 3 -->
    <g style="fill:#262626;" transform="translate(607.217955 161.192386)scale(0.06 -0.06)">
     <use xlink:href="#DejaVuSans-51"/>
    </g>
   </g>
   <g id="text_70">
    <!-- 0 -->
    <g style="fill:#262626;" transform="translate(50.777062 174.861806)scale(0.06 -0.06)">
     <use xlink:href="#DejaVuSans-48"/>
    </g>
   </g>
   <g id="text_71">
    <!-- 0 -->
    <g style="fill:#262626;" transform="translate(64.688085 174.861806)scale(0.06 -0.06)">
     <use xlink:href="#DejaVuSans-48"/>
    </g>
   </g>
   <g id="text_72">
    <!-- 0 -->
    <g style="fill:#262626;" transform="translate(78.599107 174.861806)scale(0.06 -0.06)">
     <use xlink:href="#DejaVuSans-48"/>
    </g>
   </g>
   <g id="text_73">
    <!-- 0 -->
    <g style="fill:#262626;" transform="translate(92.510129 174.861806)scale(0.06 -0.06)">
     <use xlink:href="#DejaVuSans-48"/>
    </g>
   </g>
   <g id="text_74">
    <!-- 0 -->
    <g style="fill:#262626;" transform="translate(106.421152 174.861806)scale(0.06 -0.06)">
     <use xlink:href="#DejaVuSans-48"/>
    </g>
   </g>
   <g id="text_75">
    <!-- 0 -->
    <g style="fill:#262626;" transform="translate(120.332174 174.861806)scale(0.06 -0.06)">
     <use xlink:href="#DejaVuSans-48"/>
    </g>
   </g>
   <g id="text_76">
    <!-- 0 -->
    <g style="fill:#262626;" transform="translate(134.243196 174.861806)scale(0.06 -0.06)">
     <use xlink:href="#DejaVuSans-48"/>
    </g>
   </g>
   <g id="text_77">
    <!-- 0 -->
    <g style="fill:#262626;" transform="translate(148.154219 174.861806)scale(0.06 -0.06)">
     <use xlink:href="#DejaVuSans-48"/>
    </g>
   </g>
   <g id="text_78">
    <!-- 0 -->
    <g style="fill:#262626;" transform="translate(162.065241 174.861806)scale(0.06 -0.06)">
     <use xlink:href="#DejaVuSans-48"/>
    </g>
   </g>
   <g id="text_79">
    <!-- 0 -->
    <g style="fill:#262626;" transform="translate(175.976263 174.861806)scale(0.06 -0.06)">
     <use xlink:href="#DejaVuSans-48"/>
    </g>
   </g>
   <g id="text_80">
    <!-- 0 -->
    <g style="fill:#262626;" transform="translate(189.887286 174.861806)scale(0.06 -0.06)">
     <use xlink:href="#DejaVuSans-48"/>
    </g>
   </g>
   <g id="text_81">
    <!-- 0 -->
    <g style="fill:#262626;" transform="translate(203.798308 174.861806)scale(0.06 -0.06)">
     <use xlink:href="#DejaVuSans-48"/>
    </g>
   </g>
   <g id="text_82">
    <!-- 0 -->
    <g style="fill:#262626;" transform="translate(217.70933 174.861806)scale(0.06 -0.06)">
     <use xlink:href="#DejaVuSans-48"/>
    </g>
   </g>
   <g id="text_83">
    <!-- 0 -->
    <g style="fill:#262626;" transform="translate(231.620353 174.861806)scale(0.06 -0.06)">
     <use xlink:href="#DejaVuSans-48"/>
    </g>
   </g>
   <g id="text_84">
    <!-- 0 -->
    <g style="fill:#262626;" transform="translate(245.531375 174.861806)scale(0.06 -0.06)">
     <use xlink:href="#DejaVuSans-48"/>
    </g>
   </g>
   <g id="text_85">
    <!-- 0 -->
    <g style="fill:#262626;" transform="translate(259.442397 174.861806)scale(0.06 -0.06)">
     <use xlink:href="#DejaVuSans-48"/>
    </g>
   </g>
   <g id="text_86">
    <!-- 0 -->
    <g style="fill:#262626;" transform="translate(273.35342 174.861806)scale(0.06 -0.06)">
     <use xlink:href="#DejaVuSans-48"/>
    </g>
   </g>
   <g id="text_87">
    <!-- 0 -->
    <g style="fill:#262626;" transform="translate(287.264442 174.861806)scale(0.06 -0.06)">
     <use xlink:href="#DejaVuSans-48"/>
    </g>
   </g>
   <g id="text_88">
    <!-- 0 -->
    <g style="fill:#262626;" transform="translate(301.175464 174.861806)scale(0.06 -0.06)">
     <use xlink:href="#DejaVuSans-48"/>
    </g>
   </g>
   <g id="text_89">
    <!-- 22 -->
    <g style="fill:#262626;" transform="translate(315.086487 74.619397)scale(0.06 -0.06)">
     <use xlink:href="#DejaVuSans-50"/>
     <use x="63.623047" xlink:href="#DejaVuSans-50"/>
    </g>
   </g>
   <g id="text_90">
    <!-- 16 -->
    <g style="fill:#262626;" transform="translate(328.997509 101.958235)scale(0.06 -0.06)">
     <use xlink:href="#DejaVuSans-49"/>
     <use x="63.623047" xlink:href="#DejaVuSans-54"/>
    </g>
   </g>
   <g id="text_91">
    <!-- 24 -->
    <g style="fill:#262626;" transform="translate(342.908531 65.50645)scale(0.06 -0.06)">
     <use xlink:href="#DejaVuSans-50"/>
     <use x="63.623047" xlink:href="#DejaVuSans-52"/>
    </g>
   </g>
   <g id="text_92">
    <!-- 33 -->
    <g style="fill:#262626;" transform="translate(356.819554 24.498192)scale(0.06 -0.06)">
     <use xlink:href="#DejaVuSans-51"/>
     <use x="63.623047" xlink:href="#DejaVuSans-51"/>
    </g>
   </g>
   <g id="text_93">
    <!-- 12 -->
    <g style="fill:#262626;" transform="translate(370.730576 120.184128)scale(0.06 -0.06)">
     <use xlink:href="#DejaVuSans-49"/>
     <use x="63.623047" xlink:href="#DejaVuSans-50"/>
    </g>
   </g>
   <g id="text_94">
    <!-- 10 -->
    <g style="fill:#262626;" transform="translate(384.641598 129.297074)scale(0.06 -0.06)">
     <use xlink:href="#DejaVuSans-49"/>
     <use x="63.623047" xlink:href="#DejaVuSans-48"/>
    </g>
   </g>
   <g id="text_95">
    <!-- 0 -->
    <g style="fill:#262626;" transform="translate(398.55262 174.861806)scale(0.06 -0.06)">
     <use xlink:href="#DejaVuSans-48"/>
    </g>
   </g>
   <g id="text_96">
    <!-- 13 -->
    <g style="fill:#262626;" transform="translate(412.463643 115.627655)scale(0.06 -0.06)">
     <use xlink:href="#DejaVuSans-49"/>
     <use x="63.623047" xlink:href="#DejaVuSans-51"/>
    </g>
   </g>
   <g id="text_97">
    <!-- 0 -->
    <g style="fill:#262626;" transform="translate(426.374665 174.861806)scale(0.06 -0.06)">
     <use xlink:href="#DejaVuSans-48"/>
    </g>
   </g>
   <g id="text_98">
    <!-- 0 -->
    <g style="fill:#262626;" transform="translate(440.285687 174.861806)scale(0.06 -0.06)">
     <use xlink:href="#DejaVuSans-48"/>
    </g>
   </g>
   <g id="text_99">
    <!-- 0 -->
    <g style="fill:#262626;" transform="translate(454.19671 174.861806)scale(0.06 -0.06)">
     <use xlink:href="#DejaVuSans-48"/>
    </g>
   </g>
   <g id="text_100">
    <!-- 0 -->
    <g style="fill:#262626;" transform="translate(468.107732 174.861806)scale(0.06 -0.06)">
     <use xlink:href="#DejaVuSans-48"/>
    </g>
   </g>
   <g id="text_101">
    <!-- 0 -->
    <g style="fill:#262626;" transform="translate(482.018754 174.861806)scale(0.06 -0.06)">
     <use xlink:href="#DejaVuSans-48"/>
    </g>
   </g>
   <g id="text_102">
    <!-- 0 -->
    <g style="fill:#262626;" transform="translate(495.929777 174.861806)scale(0.06 -0.06)">
     <use xlink:href="#DejaVuSans-48"/>
    </g>
   </g>
   <g id="text_103">
    <!-- 10 -->
    <g style="fill:#262626;" transform="translate(509.840799 129.297074)scale(0.06 -0.06)">
     <use xlink:href="#DejaVuSans-49"/>
     <use x="63.623047" xlink:href="#DejaVuSans-48"/>
    </g>
   </g>
   <g id="text_104">
    <!-- 1 -->
    <g style="fill:#262626;" transform="translate(523.751821 170.305332)scale(0.06 -0.06)">
     <use xlink:href="#DejaVuSans-49"/>
    </g>
   </g>
   <g id="text_105">
    <!-- 16 -->
    <g style="fill:#262626;" transform="translate(537.662844 101.958235)scale(0.06 -0.06)">
     <use xlink:href="#DejaVuSans-49"/>
     <use x="63.623047" xlink:href="#DejaVuSans-54"/>
    </g>
   </g>
   <g id="text_106">
    <!-- 0 -->
    <g style="fill:#262626;" transform="translate(551.573866 174.861806)scale(0.06 -0.06)">
     <use xlink:href="#DejaVuSans-48"/>
    </g>
   </g>
   <g id="text_107">
    <!-- 1 -->
    <g style="fill:#262626;" transform="translate(565.484888 170.305332)scale(0.06 -0.06)">
     <use xlink:href="#DejaVuSans-49"/>
    </g>
   </g>
   <g id="text_108">
    <!-- 1 -->
    <g style="fill:#262626;" transform="translate(579.395911 170.305332)scale(0.06 -0.06)">
     <use xlink:href="#DejaVuSans-49"/>
    </g>
   </g>
   <g id="text_109">
    <!-- 0 -->
    <g style="fill:#262626;" transform="translate(593.306933 174.861806)scale(0.06 -0.06)">
     <use xlink:href="#DejaVuSans-48"/>
    </g>
   </g>
   <g id="text_110">
    <!-- 1 -->
    <g style="fill:#262626;" transform="translate(607.217955 170.305332)scale(0.06 -0.06)">
     <use xlink:href="#DejaVuSans-49"/>
    </g>
   </g>
   <g id="text_111">
    <!-- Year distribution in playlist -->
    <g style="fill:#262626;" transform="translate(289.196415 10.980011)scale(0.06 -0.06)">
     <defs>
      <path d="M -0.203125 72.90625 
L 10.40625 72.90625 
L 30.609375 42.921875 
L 50.6875 72.90625 
L 61.28125 72.90625 
L 35.5 34.71875 
L 35.5 0 
L 25.59375 0 
L 25.59375 34.71875 
z
" id="DejaVuSans-89"/>
      <path d="M 56.203125 29.59375 
L 56.203125 25.203125 
L 14.890625 25.203125 
Q 15.484375 15.921875 20.484375 11.0625 
Q 25.484375 6.203125 34.421875 6.203125 
Q 39.59375 6.203125 44.453125 7.46875 
Q 49.3125 8.734375 54.109375 11.28125 
L 54.109375 2.78125 
Q 49.265625 0.734375 44.1875 -0.34375 
Q 39.109375 -1.421875 33.890625 -1.421875 
Q 20.796875 -1.421875 13.15625 6.1875 
Q 5.515625 13.8125 5.515625 26.8125 
Q 5.515625 40.234375 12.765625 48.109375 
Q 20.015625 56 32.328125 56 
Q 43.359375 56 49.78125 48.890625 
Q 56.203125 41.796875 56.203125 29.59375 
z
M 47.21875 32.234375 
Q 47.125 39.59375 43.09375 43.984375 
Q 39.0625 48.390625 32.421875 48.390625 
Q 24.90625 48.390625 20.390625 44.140625 
Q 15.875 39.890625 15.1875 32.171875 
z
" id="DejaVuSans-101"/>
      <path d="M 34.28125 27.484375 
Q 23.390625 27.484375 19.1875 25 
Q 14.984375 22.515625 14.984375 16.5 
Q 14.984375 11.71875 18.140625 8.90625 
Q 21.296875 6.109375 26.703125 6.109375 
Q 34.1875 6.109375 38.703125 11.40625 
Q 43.21875 16.703125 43.21875 25.484375 
L 43.21875 27.484375 
z
M 52.203125 31.203125 
L 52.203125 0 
L 43.21875 0 
L 43.21875 8.296875 
Q 40.140625 3.328125 35.546875 0.953125 
Q 30.953125 -1.421875 24.3125 -1.421875 
Q 15.921875 -1.421875 10.953125 3.296875 
Q 6 8.015625 6 15.921875 
Q 6 25.140625 12.171875 29.828125 
Q 18.359375 34.515625 30.609375 34.515625 
L 43.21875 34.515625 
L 43.21875 35.40625 
Q 43.21875 41.609375 39.140625 45 
Q 35.0625 48.390625 27.6875 48.390625 
Q 23 48.390625 18.546875 47.265625 
Q 14.109375 46.140625 10.015625 43.890625 
L 10.015625 52.203125 
Q 14.9375 54.109375 19.578125 55.046875 
Q 24.21875 56 28.609375 56 
Q 40.484375 56 46.34375 49.84375 
Q 52.203125 43.703125 52.203125 31.203125 
z
" id="DejaVuSans-97"/>
      <path d="M 41.109375 46.296875 
Q 39.59375 47.171875 37.8125 47.578125 
Q 36.03125 48 33.890625 48 
Q 26.265625 48 22.1875 43.046875 
Q 18.109375 38.09375 18.109375 28.8125 
L 18.109375 0 
L 9.078125 0 
L 9.078125 54.6875 
L 18.109375 54.6875 
L 18.109375 46.1875 
Q 20.953125 51.171875 25.484375 53.578125 
Q 30.03125 56 36.53125 56 
Q 37.453125 56 38.578125 55.875 
Q 39.703125 55.765625 41.0625 55.515625 
z
" id="DejaVuSans-114"/>
      <path id="DejaVuSans-32"/>
      <path d="M 45.40625 46.390625 
L 45.40625 75.984375 
L 54.390625 75.984375 
L 54.390625 0 
L 45.40625 0 
L 45.40625 8.203125 
Q 42.578125 3.328125 38.25 0.953125 
Q 33.9375 -1.421875 27.875 -1.421875 
Q 17.96875 -1.421875 11.734375 6.484375 
Q 5.515625 14.40625 5.515625 27.296875 
Q 5.515625 40.1875 11.734375 48.09375 
Q 17.96875 56 27.875 56 
Q 33.9375 56 38.25 53.625 
Q 42.578125 51.265625 45.40625 46.390625 
z
M 14.796875 27.296875 
Q 14.796875 17.390625 18.875 11.75 
Q 22.953125 6.109375 30.078125 6.109375 
Q 37.203125 6.109375 41.296875 11.75 
Q 45.40625 17.390625 45.40625 27.296875 
Q 45.40625 37.203125 41.296875 42.84375 
Q 37.203125 48.484375 30.078125 48.484375 
Q 22.953125 48.484375 18.875 42.84375 
Q 14.796875 37.203125 14.796875 27.296875 
z
" id="DejaVuSans-100"/>
      <path d="M 9.421875 54.6875 
L 18.40625 54.6875 
L 18.40625 0 
L 9.421875 0 
z
M 9.421875 75.984375 
L 18.40625 75.984375 
L 18.40625 64.59375 
L 9.421875 64.59375 
z
" id="DejaVuSans-105"/>
      <path d="M 44.28125 53.078125 
L 44.28125 44.578125 
Q 40.484375 46.53125 36.375 47.5 
Q 32.28125 48.484375 27.875 48.484375 
Q 21.1875 48.484375 17.84375 46.4375 
Q 14.5 44.390625 14.5 40.28125 
Q 14.5 37.15625 16.890625 35.375 
Q 19.28125 33.59375 26.515625 31.984375 
L 29.59375 31.296875 
Q 39.15625 29.25 43.1875 25.515625 
Q 47.21875 21.78125 47.21875 15.09375 
Q 47.21875 7.46875 41.1875 3.015625 
Q 35.15625 -1.421875 24.609375 -1.421875 
Q 20.21875 -1.421875 15.453125 -0.5625 
Q 10.6875 0.296875 5.421875 2 
L 5.421875 11.28125 
Q 10.40625 8.6875 15.234375 7.390625 
Q 20.0625 6.109375 24.8125 6.109375 
Q 31.15625 6.109375 34.5625 8.28125 
Q 37.984375 10.453125 37.984375 14.40625 
Q 37.984375 18.0625 35.515625 20.015625 
Q 33.0625 21.96875 24.703125 23.78125 
L 21.578125 24.515625 
Q 13.234375 26.265625 9.515625 29.90625 
Q 5.8125 33.546875 5.8125 39.890625 
Q 5.8125 47.609375 11.28125 51.796875 
Q 16.75 56 26.8125 56 
Q 31.78125 56 36.171875 55.265625 
Q 40.578125 54.546875 44.28125 53.078125 
z
" id="DejaVuSans-115"/>
      <path d="M 18.3125 70.21875 
L 18.3125 54.6875 
L 36.8125 54.6875 
L 36.8125 47.703125 
L 18.3125 47.703125 
L 18.3125 18.015625 
Q 18.3125 11.328125 20.140625 9.421875 
Q 21.96875 7.515625 27.59375 7.515625 
L 36.8125 7.515625 
L 36.8125 0 
L 27.59375 0 
Q 17.1875 0 13.234375 3.875 
Q 9.28125 7.765625 9.28125 18.015625 
L 9.28125 47.703125 
L 2.6875 47.703125 
L 2.6875 54.6875 
L 9.28125 54.6875 
L 9.28125 70.21875 
z
" id="DejaVuSans-116"/>
      <path d="M 48.6875 27.296875 
Q 48.6875 37.203125 44.609375 42.84375 
Q 40.53125 48.484375 33.40625 48.484375 
Q 26.265625 48.484375 22.1875 42.84375 
Q 18.109375 37.203125 18.109375 27.296875 
Q 18.109375 17.390625 22.1875 11.75 
Q 26.265625 6.109375 33.40625 6.109375 
Q 40.53125 6.109375 44.609375 11.75 
Q 48.6875 17.390625 48.6875 27.296875 
z
M 18.109375 46.390625 
Q 20.953125 51.265625 25.265625 53.625 
Q 29.59375 56 35.59375 56 
Q 45.5625 56 51.78125 48.09375 
Q 58.015625 40.1875 58.015625 27.296875 
Q 58.015625 14.40625 51.78125 6.484375 
Q 45.5625 -1.421875 35.59375 -1.421875 
Q 29.59375 -1.421875 25.265625 0.953125 
Q 20.953125 3.328125 18.109375 8.203125 
L 18.109375 0 
L 9.078125 0 
L 9.078125 75.984375 
L 18.109375 75.984375 
z
" id="DejaVuSans-98"/>
      <path d="M 8.5 21.578125 
L 8.5 54.6875 
L 17.484375 54.6875 
L 17.484375 21.921875 
Q 17.484375 14.15625 20.5 10.265625 
Q 23.53125 6.390625 29.59375 6.390625 
Q 36.859375 6.390625 41.078125 11.03125 
Q 45.3125 15.671875 45.3125 23.6875 
L 45.3125 54.6875 
L 54.296875 54.6875 
L 54.296875 0 
L 45.3125 0 
L 45.3125 8.40625 
Q 42.046875 3.421875 37.71875 1 
Q 33.40625 -1.421875 27.6875 -1.421875 
Q 18.265625 -1.421875 13.375 4.4375 
Q 8.5 10.296875 8.5 21.578125 
z
M 31.109375 56 
z
" id="DejaVuSans-117"/>
      <path d="M 30.609375 48.390625 
Q 23.390625 48.390625 19.1875 42.75 
Q 14.984375 37.109375 14.984375 27.296875 
Q 14.984375 17.484375 19.15625 11.84375 
Q 23.34375 6.203125 30.609375 6.203125 
Q 37.796875 6.203125 41.984375 11.859375 
Q 46.1875 17.53125 46.1875 27.296875 
Q 46.1875 37.015625 41.984375 42.703125 
Q 37.796875 48.390625 30.609375 48.390625 
z
M 30.609375 56 
Q 42.328125 56 49.015625 48.375 
Q 55.71875 40.765625 55.71875 27.296875 
Q 55.71875 13.875 49.015625 6.21875 
Q 42.328125 -1.421875 30.609375 -1.421875 
Q 18.84375 -1.421875 12.171875 6.21875 
Q 5.515625 13.875 5.515625 27.296875 
Q 5.515625 40.765625 12.171875 48.375 
Q 18.84375 56 30.609375 56 
z
" id="DejaVuSans-111"/>
      <path d="M 54.890625 33.015625 
L 54.890625 0 
L 45.90625 0 
L 45.90625 32.71875 
Q 45.90625 40.484375 42.875 44.328125 
Q 39.84375 48.1875 33.796875 48.1875 
Q 26.515625 48.1875 22.3125 43.546875 
Q 18.109375 38.921875 18.109375 30.90625 
L 18.109375 0 
L 9.078125 0 
L 9.078125 54.6875 
L 18.109375 54.6875 
L 18.109375 46.1875 
Q 21.34375 51.125 25.703125 53.5625 
Q 30.078125 56 35.796875 56 
Q 45.21875 56 50.046875 50.171875 
Q 54.890625 44.34375 54.890625 33.015625 
z
" id="DejaVuSans-110"/>
      <path d="M 18.109375 8.203125 
L 18.109375 -20.796875 
L 9.078125 -20.796875 
L 9.078125 54.6875 
L 18.109375 54.6875 
L 18.109375 46.390625 
Q 20.953125 51.265625 25.265625 53.625 
Q 29.59375 56 35.59375 56 
Q 45.5625 56 51.78125 48.09375 
Q 58.015625 40.1875 58.015625 27.296875 
Q 58.015625 14.40625 51.78125 6.484375 
Q 45.5625 -1.421875 35.59375 -1.421875 
Q 29.59375 -1.421875 25.265625 0.953125 
Q 20.953125 3.328125 18.109375 8.203125 
z
M 48.6875 27.296875 
Q 48.6875 37.203125 44.609375 42.84375 
Q 40.53125 48.484375 33.40625 48.484375 
Q 26.265625 48.484375 22.1875 42.84375 
Q 18.109375 37.203125 18.109375 27.296875 
Q 18.109375 17.390625 22.1875 11.75 
Q 26.265625 6.109375 33.40625 6.109375 
Q 40.53125 6.109375 44.609375 11.75 
Q 48.6875 17.390625 48.6875 27.296875 
z
" id="DejaVuSans-112"/>
      <path d="M 9.421875 75.984375 
L 18.40625 75.984375 
L 18.40625 0 
L 9.421875 0 
z
" id="DejaVuSans-108"/>
      <path d="M 32.171875 -5.078125 
Q 28.375 -14.84375 24.75 -17.8125 
Q 21.140625 -20.796875 15.09375 -20.796875 
L 7.90625 -20.796875 
L 7.90625 -13.28125 
L 13.1875 -13.28125 
Q 16.890625 -13.28125 18.9375 -11.515625 
Q 21 -9.765625 23.484375 -3.21875 
L 25.09375 0.875 
L 2.984375 54.6875 
L 12.5 54.6875 
L 29.59375 11.921875 
L 46.6875 54.6875 
L 56.203125 54.6875 
z
" id="DejaVuSans-121"/>
     </defs>
     <use xlink:href="#DejaVuSans-89"/>
     <use x="47.833984" xlink:href="#DejaVuSans-101"/>
     <use x="109.357422" xlink:href="#DejaVuSans-97"/>
     <use x="170.636719" xlink:href="#DejaVuSans-114"/>
     <use x="211.75" xlink:href="#DejaVuSans-32"/>
     <use x="243.537109" xlink:href="#DejaVuSans-100"/>
     <use x="307.013672" xlink:href="#DejaVuSans-105"/>
     <use x="334.796875" xlink:href="#DejaVuSans-115"/>
     <use x="386.896484" xlink:href="#DejaVuSans-116"/>
     <use x="426.105469" xlink:href="#DejaVuSans-114"/>
     <use x="467.21875" xlink:href="#DejaVuSans-105"/>
     <use x="495.001953" xlink:href="#DejaVuSans-98"/>
     <use x="558.478516" xlink:href="#DejaVuSans-117"/>
     <use x="621.857422" xlink:href="#DejaVuSans-116"/>
     <use x="661.066406" xlink:href="#DejaVuSans-105"/>
     <use x="688.849609" xlink:href="#DejaVuSans-111"/>
     <use x="750.03125" xlink:href="#DejaVuSans-110"/>
     <use x="813.410156" xlink:href="#DejaVuSans-32"/>
     <use x="845.197266" xlink:href="#DejaVuSans-105"/>
     <use x="872.980469" xlink:href="#DejaVuSans-110"/>
     <use x="936.359375" xlink:href="#DejaVuSans-32"/>
     <use x="968.146484" xlink:href="#DejaVuSans-112"/>
     <use x="1031.623047" xlink:href="#DejaVuSans-108"/>
     <use x="1059.40625" xlink:href="#DejaVuSans-97"/>
     <use x="1120.685547" xlink:href="#DejaVuSans-121"/>
     <use x="1179.865234" xlink:href="#DejaVuSans-108"/>
     <use x="1207.648438" xlink:href="#DejaVuSans-105"/>
     <use x="1235.431641" xlink:href="#DejaVuSans-115"/>
     <use x="1287.53125" xlink:href="#DejaVuSans-116"/>
    </g>
   </g>
   <g id="legend_1">
    <g id="line2d_31">
     <path d="M 579.69625 24.184152 
L 590.69625 24.184152 
" style="fill:none;stroke:#4c72b0;stroke-linecap:round;stroke-width:0.75;"/>
    </g>
    <g id="line2d_32"/>
    <g id="text_112">
     <!-- 101562485 -->
     <g style="fill:#262626;" transform="translate(595.09625 26.109152)scale(0.055 -0.055)">
      <use xlink:href="#DejaVuSans-49"/>
      <use x="63.623047" xlink:href="#DejaVuSans-48"/>
      <use x="127.246094" xlink:href="#DejaVuSans-49"/>
      <use x="190.869141" xlink:href="#DejaVuSans-53"/>
      <use x="254.492188" xlink:href="#DejaVuSans-54"/>
      <use x="318.115234" xlink:href="#DejaVuSans-50"/>
      <use x="381.738281" xlink:href="#DejaVuSans-52"/>
      <use x="445.361328" xlink:href="#DejaVuSans-56"/>
      <use x="508.984375" xlink:href="#DejaVuSans-53"/>
     </g>
    </g>
    <g id="line2d_33">
     <path d="M 579.69625 32.257121 
L 590.69625 32.257121 
" style="fill:none;stroke:#dd8452;stroke-linecap:round;stroke-width:0.75;"/>
    </g>
    <g id="line2d_34"/>
    <g id="text_113">
     <!-- 2540602413 -->
     <g style="fill:#262626;" transform="translate(595.09625 34.182121)scale(0.055 -0.055)">
      <use xlink:href="#DejaVuSans-50"/>
      <use x="63.623047" xlink:href="#DejaVuSans-53"/>
      <use x="127.246094" xlink:href="#DejaVuSans-52"/>
      <use x="190.869141" xlink:href="#DejaVuSans-48"/>
      <use x="254.492188" xlink:href="#DejaVuSans-54"/>
      <use x="318.115234" xlink:href="#DejaVuSans-48"/>
      <use x="381.738281" xlink:href="#DejaVuSans-50"/>
      <use x="445.361328" xlink:href="#DejaVuSans-52"/>
      <use x="508.984375" xlink:href="#DejaVuSans-49"/>
      <use x="572.607422" xlink:href="#DejaVuSans-51"/>
     </g>
    </g>
   </g>
  </g>
 </g>
 <defs>
  <clipPath id="p744d523d71">
   <rect height="165.399975" width="612.084982" x="22.955018" y="16.980011"/>
  </clipPath>
 </defs>
</svg>
